<svg width="949" height="685" viewBox="0 0 949 685" fill="none" xmlns="http://www.w3.org/2000/svg">
<path d="M163.916 474.576H314.797C314.797 474.576 326.862 408.051 328.741 406.173C330.621 404.295 362.115 381.753 404.891 390.207C447.667 398.66 483.391 428.244 493.262 438.574C503.134 448.904 503.602 470.507 501.723 484.124C499.843 497.741 499.843 529.204 490.912 533.9C481.98 538.597 314.64 529.204 314.64 514.648C314.64 500.092 331.092 413.686 338.142 411.338C345.194 408.989 365.874 397.721 390.789 401.476C415.702 405.234 453.777 426.835 450.957 422.609C448.138 418.383 418.053 398.189 397.841 396.311C377.63 394.433 340.495 403.199 340.495 403.199C340.495 403.199 353.657 353.737 353.029 347.788C352.403 341.838 336.419 289.246 331.406 280.793C326.393 272.341 316.365 258.565 316.679 251.679C316.993 244.791 330.78 220.374 332.034 222.251C333.288 224.129 335.325 234.618 335.482 230.235C335.639 225.852 331.566 213.408 328.509 205.19C325.453 196.972 317.227 176.31 313.234 171.614C309.238 166.917 304.251 161.621 304.145 156.821C304.04 152.022 301.246 140.385 296.31 133.343C291.375 126.298 287.379 116.202 290.2 110.803C293.02 105.401 302.58 104.854 306.025 107.202C309.472 109.55 313.545 117.22 312.606 119.569C311.666 121.917 302.577 129.117 301.169 129.587C299.758 130.058 292.621 116.665 292.08 112.837C291.539 109.009 299.601 102.351 313.388 106.577C327.176 110.803 339.555 128.648 342.063 136.473C344.57 144.3 354.596 161.518 356.79 161.204C358.984 160.89 518.489 77.6171 516.924 73.8593C515.356 70.1015 476.812 14.6921 473.365 10.9343C469.917 7.17653 464.59 -0.179853 449.706 1.38648C434.821 2.95282 295.842 73.9389 290.906 79.5721C285.97 85.2076 285.03 94.6244 287.327 100.468C289.626 106.312 290.775 107.251 291.714 107.148C292.654 107.043 303.831 104.748 302.577 101.929C301.323 99.1127 294.951 89.4079 296.205 85.025C297.459 80.6421 405.596 23.2215 410.063 24.3969C414.528 25.5698 428.161 45.9978 426.516 48.3461C424.87 50.6944 366.347 78.8697 365.408 77.9308C364.468 76.992 353.891 61.4949 354.596 60.0854C355.302 58.6759 410.534 29.5618 412.883 30.9712C415.233 32.3807 422.283 44.2769 421.814 45.684C421.343 47.0935 326.079 96.0877 326.55 99.0611C327.021 102.035 355.068 144.611 357.887 144.611C360.706 144.611 493.499 74.173 494.204 71.8247C494.91 69.4764 470.937 37.075 468.82 37.075C466.704 37.075 335.322 102.348 336.028 104.46C336.733 106.574 357.181 138.976 357.885 138.976C358.588 138.976 487.855 72.9977 487.384 70.6494C486.913 68.301 467.407 40.8305 466.467 41.7694C465.528 42.7082 456.753 46.1008 457.379 47.6648C458.005 49.2288 475.868 73.9623 477.122 73.754C478.375 73.5456 484.539 70.5183 483.597 68.8489C482.657 67.1796 467.196 44.5344 466.048 44.4314C464.9 44.3261 460.198 46.2061 460.615 47.3534C461.033 48.5006 475.343 70.729 477.016 70.4152C478.687 70.1015 503.286 58.0485 504.071 58.9897C504.854 59.9285 530.863 89.4337 530.395 90.1384C529.924 90.8431 468.113 126.298 468.113 126.298L459.418 113.619L485.27 101.175L491.38 110.566C491.38 110.566 470.227 123.245 469.758 122.54C469.287 121.835 464.117 113.383 464.117 113.383L515.353 85.4418L520.889 93.2688L497.907 106.731L492.894 100.471L514.725 87.8439L540.501 118.08L398.073 198.85C398.073 198.85 389.847 191.103 384.911 189.459C379.976 187.815 361.576 169.591 360.47 164.805C359.361 160.019 363.577 167.467 367.025 170.909C370.472 174.353 378.41 182.075 379.038 181.658C379.664 181.241 400.138 169.031 400.557 169.031C400.977 169.031 414.868 183.849 414.868 183.849L421.971 180.091L408.915 166.526L435.761 150.769L448.295 165.901L453.413 162.562L441.611 148.788C441.611 148.788 466.472 133.865 467.098 134.492C467.724 135.117 479.214 149.519 479.214 149.519L485.378 144.822L473.887 131.359L497.389 117.794L510.237 131.987L516.087 128.96L503.762 115.602L525.49 102.662L543.718 123.638L403.016 202.842C403.016 202.842 418.292 222.095 422.288 229.374C426.284 236.653 435.449 258.567 437.957 271.089C440.465 283.61 445.087 297.464 452.373 307.091C459.659 316.718 472.324 323.684 474.204 323.265C476.083 322.848 605.611 242.052 605.611 242.052L595.974 234.068C595.974 234.068 485.275 306.62 478.694 307.559C472.113 308.498 459.423 305.916 453.781 300.28C448.14 294.645 444.381 287.836 442.736 283.139C441.091 278.443 436.155 255.669 436.155 255.669L460.362 239.467L474.464 257.076L450.962 273.278L439.68 258.72L459.657 244.161L493.267 283.842L468.12 297.695L454.958 279.148L475.169 266.938L488.097 281.73L526.406 260.834L512.539 243.459L488.097 257.781L496.792 271.868L555.315 240.172L542.153 223.97L520.296 237.587L536.748 258.249L585.4 226.552L572.709 208.707L552.498 221.151L564.954 235.709L579.995 226.082L570.358 213.872L525.468 239.231L501.495 215.752C501.495 215.752 523.589 202.369 524.294 202.837C525 203.308 537.222 217.159 537.222 217.159L483.166 250.265L470.475 232.89L491.863 220.68L502.909 233.595L483.871 246.978L450.967 210.585C450.967 210.585 473.294 196.731 474 196.968C474.705 197.202 485.985 212.228 485.985 212.228L433.338 246.744C433.338 246.744 422.761 227.255 423.466 227.021C424.172 226.787 437.803 215.047 440.388 215.75C442.973 216.454 451.67 229.367 451.67 229.367L491.858 207.061L481.83 193.444L492.327 185.149L488.254 180.923C488.254 180.923 474.152 187.968 474.152 187.34C474.152 186.713 461.93 172.157 461.93 172.157L486.529 158.694L496.243 171.216L441.873 205.652C441.873 205.652 428.869 191.093 429.494 190.625C430.12 190.154 456.601 175.598 456.601 175.598C456.601 175.598 464.904 186.242 464.904 186.713C464.904 187.183 417.429 218.646 417.429 218.646L407.089 202.837L424.167 192.662L433.256 206.436L417.432 215.202C417.432 215.202 410.38 204.088 410.537 203.619C410.694 203.149 455.349 177.479 455.349 177.479L494.521 155.096C494.521 155.096 505.646 169.183 506.115 169.026C506.586 168.87 528.834 153.529 528.834 153.529L518.18 140.851L496.871 152.277L506.272 164.955L556.254 135.213L545.443 124.256L525.075 136.152L532.438 145.075C532.438 145.075 536.512 150.867 535.415 151.179C534.318 151.49 498.751 181.232 496.557 184.051C494.364 186.867 491.387 190.782 493.424 197.513C495.461 204.244 506.115 207.843 513.635 204.401C521.156 200.957 542.153 185.617 543.561 182.8C544.972 179.984 546.538 171.529 552.336 164.955C558.134 158.381 582.81 133.806 585.632 132.631C588.454 131.455 580.931 140.849 574.821 146.014C568.711 151.179 551.787 170.197 548.968 176.771C546.149 183.346 545.912 192.503 543.327 195.79C540.742 199.077 536.98 204.242 539.802 210.816C542.622 217.391 559.311 213.399 565.655 209.407C572.001 205.415 572.941 190.859 574.352 190.859C575.763 190.859 591.744 180.293 593.155 177.944C594.566 175.596 603.732 185.458 615.717 188.274C627.702 191.091 623.786 191.405 618.145 191.248C612.504 191.091 598.245 182.325 595.895 182.014C593.544 181.7 581.793 188.745 581.793 191.405C581.793 194.064 581.167 211.285 581.87 214.335C582.576 217.388 609.603 241.338 608.663 242.277C607.723 243.215 489.503 315.297 489.503 317.411C489.503 319.526 490.443 337.603 489.269 350.752C488.095 363.9 483.628 380.1 479.632 377.988C475.636 375.874 464.119 360.143 464.119 360.143C464.119 360.143 478.926 376.579 477.281 384.092C475.636 391.605 469.289 416.259 472.345 414.616C475.401 412.972 478.455 385.031 481.511 382.448C484.567 379.866 490.443 359.438 491.617 354.039C492.791 348.638 493.733 316.941 493.733 316.941C493.733 316.941 608.897 246.268 612.188 247.676C615.478 249.083 637.1 277.729 649.557 286.885C662.013 296.042 706.198 314.904 723.433 314.59C740.668 314.276 759.785 307.077 768.557 308.33C777.332 309.582 862.724 333.375 866.486 328.21C870.247 323.045 903.15 229.596 902.681 227.718C902.21 225.841 851.21 207.761 837.577 206.586C823.947 205.413 808.668 204.708 796.917 195.551C785.166 186.394 733.459 119.009 720.063 111.259C706.666 103.512 699.146 104.919 669.766 108.911C640.389 112.903 602.888 116.111 602.888 116.111L613.959 131.554C613.959 131.554 641.64 137.398 652.139 137.241C662.637 137.084 663.108 137.241 659.66 135.52C656.213 133.799 649.946 136.616 643.522 134.267C637.098 131.919 618.138 130.198 616.887 130.198C615.635 130.198 586.961 131.451 586.49 130.355C586.019 129.259 538.544 63.6723 533.999 54.4382C529.455 45.2041 526.244 39.3321 527.81 38.5501C529.378 37.7681 531.883 36.9837 531.335 36.0449C530.786 35.106 525.773 30.5662 525.302 31.1141C524.831 31.6619 527.025 36.1221 528.044 36.5927C529.064 37.0633 531.267 34.8719 533.299 36.0449C535.33 37.2179 600.589 112.353 600.589 112.353C600.589 112.353 608.424 104.057 610.146 102.023C611.869 99.9883 617.824 109.85 620.175 111.257C622.525 112.666 692.408 105.621 690.84 102.805C689.272 99.9883 633.962 66.8026 627.852 63.3585C621.743 59.9145 613.437 57.2548 608.738 59.9145C604.036 62.5766 580.429 89.7076 579.178 89.1855C577.924 88.6634 533.634 37.843 532.485 38.1567C531.337 38.4704 528.515 40.3482 529.246 41.4954C529.978 42.6427 566.641 100.037 567.478 100.663C568.315 101.288 557.972 114.542 557.241 118.716C556.51 122.891 531.44 92.4189 532.171 92.6272C532.902 92.8356 558.807 118.611 558.704 120.908C558.598 123.205 556.927 129.777 557.764 132.387C558.6 134.998 560.48 133.64 562.988 132.858C565.495 132.076 579.909 119.03 579.597 118.613C579.283 118.197 586.072 128.632 588.163 128.735C590.254 128.838 610.517 130.821 609.785 128.527C609.054 126.232 580.851 90.6465 580.851 90.6465C580.851 90.6465 610.203 60.4881 613.964 60.6965C617.726 60.9049 629.191 68.8442 631.408 67.793C633.627 66.7394 642.167 61.3239 646.763 63.0963C651.359 64.871 698.679 102.959 701.604 103.793C704.529 104.626 722.181 107.967 727.508 111.098C732.835 114.228 795.366 191.636 803.344 197.19C811.324 202.744 833.115 199.695 843.141 202.512C853.169 205.328 905.503 224.113 908.008 220.357C910.516 216.599 910.516 205.644 917.408 207.208C924.303 208.775 931.196 208.461 929.63 212.217C928.063 215.974 879.805 344.327 877.297 344.327C874.789 344.327 862.57 339.005 863.195 337.128C863.821 335.25 871.342 325.231 877.611 308.952C883.878 292.673 910.827 212.53 915.215 211.278C919.602 210.025 1011.42 225.99 1012.67 239.139C1013.93 252.288 1013.61 407.566 1005.47 404.436C997.317 401.305 890.773 353.093 890.773 348.71C890.773 344.327 927.751 219.102 934.018 221.608C940.285 224.113 974.757 241.017 999.199 241.017H1080.68" stroke="#019435" stroke-opacity="0.6" stroke-miterlimit="10"/>
</svg>
