<svg width="801" height="918" viewBox="0 0 801 918" fill="none" xmlns="http://www.w3.org/2000/svg">
<path d="M799.592 816.296C799.592 816.296 628.276 516.144 623.369 513.105C618.461 510.065 369.074 530.775 353.944 544.481C338.813 558.185 321.887 588.811 301.074 600.909C280.26 613.006 260.456 629.1 248.978 630.206C237.499 631.312 223.433 626.556 217.172 627.904C210.912 629.251 198.469 633.209 194.751 626.531C191.033 619.853 195.207 611.535 206.081 606.85C216.954 602.167 236.602 598.769 239.047 599.313C241.493 599.856 263.849 574.913 268.061 574.266C272.272 573.62 245.748 602.948 241.557 603.912C237.367 604.875 214.522 605.874 207.687 610.176C200.852 614.478 198.691 619.498 196.744 619.811C194.796 620.123 123.909 614.838 118.223 610.124C112.534 605.41 110.586 595.575 121.593 589.994C132.601 584.415 191.044 588.584 202.302 585.97C213.561 583.356 231.868 586.956 248.866 566.599C265.863 546.242 271.563 502.501 265.15 492.314C258.738 482.126 229.671 464.811 199.791 468.919C169.911 473.028 142.639 498.537 152.668 520.861C162.695 543.188 172.723 538.176 173.776 547.878C174.828 557.578 181.723 581.562 198.041 581.735C214.359 581.909 242.114 575.269 254.267 545.455C266.421 515.637 267.369 503.566 261.804 493.605C256.24 483.645 219.423 468.315 197.347 473.453C175.271 478.591 155.26 497.425 156.241 512.076C157.222 526.729 168.548 536.352 176.14 542.087C183.733 547.822 178.859 559.167 181.206 563.205C183.553 567.242 187.911 569.948 186.513 570.924C185.114 571.9 178.832 575.278 164.619 575.247C150.404 575.216 110.231 576.741 102.889 578.388C95.5487 580.036 92.2896 589.458 94.3072 593.307C96.3236 597.154 111.269 602.764 111.108 601.547C110.946 600.329 96.8799 594.539 96.6555 590.96C96.4312 587.38 100.612 582.549 99.717 581.76C98.8219 580.971 92.7368 589.854 88.5232 590.121C84.3096 590.388 74.6111 588.169 74.836 576.905C75.0602 565.644 79.9537 567.957 84.4128 565.2C88.873 562.444 119.75 512.987 125.102 507.258C130.454 501.529 146.092 480.245 147.859 483.145C149.628 486.047 147.781 498.088 149.284 500.814C150.787 503.541 128.643 526.315 125.761 530.937C122.879 535.56 100.862 573.018 103.168 574.732C105.474 576.446 115.133 574.652 116.367 572.08C117.601 569.507 124.136 556.324 127.972 550.711C131.808 545.098 148.505 525.355 150.299 525.621C152.091 525.888 164.679 545.854 166.8 545.931C168.92 546.008 132.721 573.159 133.638 573.608C134.555 574.057 173.62 573.067 174.605 569.876C175.59 566.686 172.701 555.706 169.522 554.933C166.344 554.162 145.883 562.452 147.06 559.969C148.236 557.484 161.851 547.935 160.459 544.977C159.068 542.022 148.05 534.619 145.898 522.178C143.742 509.736 143.821 481.971 141.978 481.897C140.133 481.823 106.724 530.869 96.4359 543.886C86.1481 556.903 80.7859 568.532 75.9213 564.486C71.0566 560.439 68.7501 555.342 73.2837 539.282C77.8184 523.225 95.5348 478.551 101.239 480.475C106.943 482.398 114.464 486.319 120.245 482.739C126.027 479.16 146.597 460.439 150.625 457.225C154.653 454.012 181.422 447.838 184.408 449.593C187.396 451.35 157.924 456.257 151.009 462.021C144.095 467.785 123.683 486.962 119.801 487.8C115.919 488.638 103.296 484.954 101.538 483.248C99.7804 481.542 98.9264 476.69 104.914 468.953C110.902 461.217 118.144 447.186 120.177 438.474C122.211 429.762 131.44 421.78 136.425 419.646C141.41 417.511 180.727 398.642 198.62 395.609C216.514 392.575 258.806 390.091 269.706 381.791C280.605 373.491 409.021 180.998 414.708 180.64C420.396 180.281 478.758 282.384 474.647 289.683C470.535 296.982 320.825 428.033 319.57 444.475C318.316 460.917 315.517 464.836 311.728 468.184C307.941 471.531 270.629 492.727 270.386 490.903C270.145 489.079 306.499 468.768 309.693 466.093C312.887 463.417 321.091 453.576 328.016 456.752C334.942 459.93 355.753 465.019 384.106 455.743C412.458 446.467 553.925 413.677 561.232 418.921C568.541 424.168 607.064 507.356 599.267 507.468C591.47 507.58 367.961 522.09 351.148 536.282C334.334 550.474 311.562 588.699 298.46 596.97C285.357 605.241 258.344 633.162 252.383 644.703C246.423 656.243 180.56 667.678 163.27 669.871C145.981 672.063 131.545 667.14 123.625 673.054C115.704 678.967 120.883 685.998 114.563 686.397C108.243 686.797 66.8443 660.662 59.3535 647.775C51.8627 634.887 47.8941 620.169 51.1325 617.85C54.3709 615.531 57.8956 620.467 62.3614 616.126C66.8271 611.785 77.652 592.834 79.7158 593.38C81.7796 593.926 64.6983 622.405 60.0387 622.278C55.378 622.149 52.3799 612.106 48.0408 614.411C43.7006 616.714 3.84369 652.975 6.29316 658.319C8.74152 663.66 22.6497 689.843 53.6408 707.842C84.632 725.841 96.0166 719.877 97.3666 718.439C98.7136 717 117.945 694.475 115.87 692.407C113.795 690.339 69.1376 677.01 55.5198 655.461C41.9019 633.912 42.8389 627.256 41.127 626.942C39.415 626.628 8.0091 656.012 9.33609 658.295C10.6631 660.578 37.7012 692.442 48.2608 698.963C58.8204 705.484 101.024 716.094 100.203 719.189C99.3819 722.284 17.7696 852.983 9.88038 874.92C1.99117 896.857 2.34148 916.623 -9.84847 916.505C-22.0384 916.386 -115.866 796.103 -106.848 769.91C-97.8296 743.717 -4.31611 661.865 0.7652 661.966C5.84651 662.066 37.9685 700.796 36.41 705.632C34.8516 710.467 18.3222 734.259 15.1566 733.698C11.991 733.137 -26.6153 681.37 -27.0413 677.255C-27.4674 673.139 -14.1579 654.707 -10.8922 652.808C-7.62652 650.91 -2.63948 650.849 -2.68748 647.384C-2.73548 643.918 -27.5811 599.107 -29.5844 559.021C-31.5897 518.936 -12.85 516.23 -16.3107 513.658C-19.7714 511.087 -49.7595 512.475 -56.094 520.739C-62.4285 529.004 -68.9313 573.051 -61.3748 608.598C-53.8183 644.145 -51.749 638.686 -62.1833 648.354C-72.6188 658.02 -154.456 698.711 -158.91 694.426C-163.364 690.141 -218.987 533.575 -210.503 531.262C-202.019 528.949 -66.031 516.04 -66.7592 522.682C-67.4844 529.324 -73.9952 587.452 -66.8266 612.749C-59.6581 638.047 -60.8981 646.624 -49.0791 648.92C-37.2601 651.217 -12.914 646.887 -12.5431 644.71C-12.1721 642.532 -34.8685 582.062 -37.7081 552.939C-40.5477 523.816 -28.0603 519.714 -22.9081 516.401C-17.7559 513.087 20.6878 501.975 22.2411 506.528C23.7943 511.081 8.92751 547.877 26.4732 568.671C44.0189 589.466 58.0585 588.07 58.6131 590.149C59.1658 592.229 -2.28604 621.399 -7.68898 618.864C-13.0938 616.331 -25.2239 556.379 -22.5564 539.552C-19.8889 522.725 -6.70824 515.717 -2.45211 514.772C1.80403 513.826 16.2562 506.845 16.3947 509.056C16.5333 511.267 3.12594 540.338 15.4152 564.297C27.7033 588.255 39.7743 596.626 45.0987 594.513C50.4231 592.401 72.3677 586.194 71.1916 583.604C70.0136 581.015 57.5157 571.91 51.9683 562.365C46.4209 552.821 27.6063 509.74 29.0983 507.237C30.5922 504.733 48.8852 493.935 53.5531 483.366C58.221 472.796 77.2347 442.102 91.8691 432.613C106.502 423.126 153.767 395.381 157.865 391.91C161.962 388.436 172.179 382.717 173.763 385.07C175.35 387.422 174.549 400.327 173.724 399.28C172.896 398.233 171.99 389.158 170.716 387.717C169.441 386.276 -53.9145 1.24202 -53.9145 1.24202" stroke="#019435" stroke-opacity="0.6" stroke-miterlimit="10"/>
</svg>
